<mxfile host="app.diagrams.net" modified="2021-03-17T10:41:53.646Z" agent="5.0 (Macintosh; Intel Mac OS X 10_14_5) AppleWebKit/537.36 (KHTML, like Gecko) Chrome/89.0.4389.82 Safari/537.36" etag="TvNXpKAfRahyMI4zGBh-" version="14.4.8" type="github">
  <diagram id="3iMdIdEW8-pAiPxjmxJ1" name="Page-1">
    <mxGraphModel dx="1426" dy="825" grid="1" gridSize="10" guides="1" tooltips="1" connect="1" arrows="1" fold="1" page="1" pageScale="1" pageWidth="827" pageHeight="1169" math="0" shadow="0">
      <root>
        <mxCell id="0" />
        <mxCell id="1" parent="0" />
        <mxCell id="zWoZ9l3IoQLcpWMWvW46-1" value="" style="whiteSpace=wrap;html=1;aspect=fixed;fillColor=#dae8fc;strokeColor=#6c8ebf;" parent="1" vertex="1">
          <mxGeometry x="92.63" y="60" width="670" height="670" as="geometry" />
        </mxCell>
        <mxCell id="zWoZ9l3IoQLcpWMWvW46-2" value="&amp;nbsp; 服务端" style="rounded=0;whiteSpace=wrap;html=1;fillColor=#e1d5e7;strokeColor=#9673a6;align=left;" parent="1" vertex="1">
          <mxGeometry x="110" y="80" width="630" height="260" as="geometry" />
        </mxCell>
        <mxCell id="zWoZ9l3IoQLcpWMWvW46-8" value="middleware" style="rounded=0;whiteSpace=wrap;html=1;" parent="1" vertex="1">
          <mxGeometry x="320.76" y="98" width="120" height="60" as="geometry" />
        </mxCell>
        <mxCell id="zWoZ9l3IoQLcpWMWvW46-9" value="controller" style="rounded=0;whiteSpace=wrap;html=1;" parent="1" vertex="1">
          <mxGeometry x="186.76" y="98" width="120" height="60" as="geometry" />
        </mxCell>
        <mxCell id="zWoZ9l3IoQLcpWMWvW46-10" value="model" style="rounded=0;whiteSpace=wrap;html=1;" parent="1" vertex="1">
          <mxGeometry x="456.76" y="98" width="120" height="60" as="geometry" />
        </mxCell>
        <mxCell id="zWoZ9l3IoQLcpWMWvW46-11" value="public" style="rounded=0;whiteSpace=wrap;html=1;fontStyle=0" parent="1" vertex="1">
          <mxGeometry x="186.76" y="178" width="120" height="60" as="geometry" />
        </mxCell>
        <mxCell id="zWoZ9l3IoQLcpWMWvW46-12" value="extend" style="rounded=0;whiteSpace=wrap;html=1;fontStyle=0" parent="1" vertex="1">
          <mxGeometry x="321.76" y="178" width="120" height="60" as="geometry" />
        </mxCell>
        <mxCell id="zWoZ9l3IoQLcpWMWvW46-14" value="router" style="rounded=0;whiteSpace=wrap;html=1;fontStyle=0" parent="1" vertex="1">
          <mxGeometry x="456.76" y="178" width="120" height="60" as="geometry" />
        </mxCell>
        <mxCell id="zWoZ9l3IoQLcpWMWvW46-17" value="database" style="rounded=0;whiteSpace=wrap;html=1;" parent="1" vertex="1">
          <mxGeometry x="186.76" y="258" width="120" height="60" as="geometry" />
        </mxCell>
        <mxCell id="zWoZ9l3IoQLcpWMWvW46-18" value="config" style="rounded=0;whiteSpace=wrap;html=1;" parent="1" vertex="1">
          <mxGeometry x="320.76" y="258" width="120" height="60" as="geometry" />
        </mxCell>
        <mxCell id="zWoZ9l3IoQLcpWMWvW46-19" value="logs" style="rounded=0;whiteSpace=wrap;html=1;" parent="1" vertex="1">
          <mxGeometry x="456.76" y="258" width="120" height="60" as="geometry" />
        </mxCell>
        <mxCell id="zWoZ9l3IoQLcpWMWvW46-20" value="service" style="rounded=0;whiteSpace=wrap;html=1;" parent="1" vertex="1">
          <mxGeometry x="586.76" y="98" width="120" height="60" as="geometry" />
        </mxCell>
        <mxCell id="zWoZ9l3IoQLcpWMWvW46-23" value="" style="edgeStyle=orthogonalEdgeStyle;rounded=0;orthogonalLoop=1;jettySize=auto;html=1;" parent="1" source="zWoZ9l3IoQLcpWMWvW46-21" target="zWoZ9l3IoQLcpWMWvW46-22" edge="1">
          <mxGeometry relative="1" as="geometry" />
        </mxCell>
        <mxCell id="zWoZ9l3IoQLcpWMWvW46-21" value="&lt;span style=&quot;font-weight: normal&quot;&gt;plugins&lt;/span&gt;" style="rounded=0;whiteSpace=wrap;html=1;fontStyle=1" parent="1" vertex="1">
          <mxGeometry x="586.76" y="178" width="120" height="60" as="geometry" />
        </mxCell>
        <mxCell id="zWoZ9l3IoQLcpWMWvW46-22" value="..." style="rounded=0;whiteSpace=wrap;html=1;" parent="1" vertex="1">
          <mxGeometry x="586.76" y="258" width="120" height="60" as="geometry" />
        </mxCell>
        <mxCell id="zWoZ9l3IoQLcpWMWvW46-24" style="edgeStyle=orthogonalEdgeStyle;rounded=0;orthogonalLoop=1;jettySize=auto;html=1;exitX=0.5;exitY=1;exitDx=0;exitDy=0;" parent="1" source="zWoZ9l3IoQLcpWMWvW46-1" target="zWoZ9l3IoQLcpWMWvW46-1" edge="1">
          <mxGeometry relative="1" as="geometry" />
        </mxCell>
        <mxCell id="zWoZ9l3IoQLcpWMWvW46-25" value="&amp;nbsp; web项目" style="rounded=0;whiteSpace=wrap;html=1;fillColor=#f8cecc;strokeColor=#b85450;align=left;" parent="1" vertex="1">
          <mxGeometry x="110" y="350" width="630" height="360" as="geometry" />
        </mxCell>
        <mxCell id="zWoZ9l3IoQLcpWMWvW46-40" value="plugins" style="rounded=0;whiteSpace=wrap;html=1;align=center;shadow=0;sketch=0;glass=0;imageAspect=1;movable=1;rotatable=1;autosize=0;expand=1;editable=1;imageWidth=24;imageHeight=24;" parent="1" vertex="1">
          <mxGeometry x="186.76" y="370" width="120" height="60" as="geometry" />
        </mxCell>
        <mxCell id="zWoZ9l3IoQLcpWMWvW46-41" value="middleware" style="rounded=0;whiteSpace=wrap;html=1;align=center;shadow=0;sketch=0;glass=0;imageAspect=1;movable=1;rotatable=1;autosize=0;expand=1;editable=1;imageWidth=24;imageHeight=24;" parent="1" vertex="1">
          <mxGeometry x="319.01" y="370" width="120" height="60" as="geometry" />
        </mxCell>
        <mxCell id="zWoZ9l3IoQLcpWMWvW46-42" value="layouts" style="rounded=0;whiteSpace=wrap;html=1;align=center;shadow=0;sketch=0;glass=0;imageAspect=1;movable=1;rotatable=1;autosize=0;expand=1;editable=1;imageWidth=24;imageHeight=24;" parent="1" vertex="1">
          <mxGeometry x="456.76" y="370" width="120" height="60" as="geometry" />
        </mxCell>
        <mxCell id="zWoZ9l3IoQLcpWMWvW46-43" value="router" style="rounded=0;whiteSpace=wrap;html=1;align=center;shadow=0;sketch=0;glass=0;imageAspect=1;movable=1;rotatable=1;autosize=0;expand=1;editable=1;imageWidth=24;imageHeight=24;" parent="1" vertex="1">
          <mxGeometry x="586.76" y="370" width="120" height="60" as="geometry" />
        </mxCell>
        <mxCell id="zWoZ9l3IoQLcpWMWvW46-45" value="router" style="rounded=0;whiteSpace=wrap;html=1;align=center;shadow=0;sketch=0;glass=0;imageAspect=1;movable=1;rotatable=1;autosize=0;expand=1;editable=1;imageWidth=24;imageHeight=24;" parent="1" vertex="1">
          <mxGeometry x="186.76" y="449" width="120" height="60" as="geometry" />
        </mxCell>
        <mxCell id="zWoZ9l3IoQLcpWMWvW46-46" value="store" style="rounded=0;whiteSpace=wrap;html=1;align=center;shadow=0;sketch=0;glass=0;imageAspect=1;movable=1;rotatable=1;autosize=0;expand=1;editable=1;imageWidth=24;imageHeight=24;" parent="1" vertex="1">
          <mxGeometry x="319.01" y="449" width="120" height="60" as="geometry" />
        </mxCell>
        <mxCell id="zWoZ9l3IoQLcpWMWvW46-47" value="model" style="rounded=0;whiteSpace=wrap;html=1;align=center;shadow=0;sketch=0;glass=0;imageAspect=1;movable=1;rotatable=1;autosize=0;expand=1;editable=1;imageWidth=24;imageHeight=24;" parent="1" vertex="1">
          <mxGeometry x="456.76" y="449" width="120" height="60" as="geometry" />
        </mxCell>
        <mxCell id="zWoZ9l3IoQLcpWMWvW46-48" value="..." style="rounded=0;whiteSpace=wrap;html=1;align=center;shadow=0;sketch=0;glass=0;imageAspect=1;movable=1;rotatable=1;autosize=0;expand=1;editable=1;imageWidth=24;imageHeight=24;" parent="1" vertex="1">
          <mxGeometry x="586.76" y="449" width="120" height="60" as="geometry" />
        </mxCell>
        <mxCell id="zWoZ9l3IoQLcpWMWvW46-49" value="taco" style="rounded=0;whiteSpace=wrap;html=1;shadow=0;glass=0;sketch=0;fillColor=#fad9d5;strokeColor=#ae4132;" parent="1" vertex="1">
          <mxGeometry x="187.01" y="525" width="522.99" height="60" as="geometry" />
        </mxCell>
        <mxCell id="zWoZ9l3IoQLcpWMWvW46-50" value="start-kit-builder" style="rounded=0;whiteSpace=wrap;html=1;shadow=0;glass=0;sketch=0;align=left;fillColor=#fff2cc;strokeColor=#d6b656;" parent="1" vertex="1">
          <mxGeometry x="187.01" y="600" width="522.99" height="90" as="geometry" />
        </mxCell>
        <mxCell id="zWoZ9l3IoQLcpWMWvW46-51" value="webpack" style="rounded=0;whiteSpace=wrap;html=1;shadow=0;glass=0;sketch=0;" parent="1" vertex="1">
          <mxGeometry x="300" y="610" width="373" height="30" as="geometry" />
        </mxCell>
        <mxCell id="zWoZ9l3IoQLcpWMWvW46-52" value="bin(start、build)" style="rounded=0;whiteSpace=wrap;html=1;shadow=0;glass=0;sketch=0;" parent="1" vertex="1">
          <mxGeometry x="300" y="650" width="373" height="30" as="geometry" />
        </mxCell>
      </root>
    </mxGraphModel>
  </diagram>
</mxfile>
